<svg width="403" height="84" viewBox="0 0 403 84" fill="none" xmlns="http://www.w3.org/2000/svg">
<path d="M0.960938 84V0.210938H36.7031C52.6406 0.210938 60.6094 6.71484 60.6094 19.7227C60.6094 29.2539 55.4141 36.0703 45.0234 40.1719C56.1172 42.2422 61.6641 48.5898 61.6641 59.2148C61.6641 75.7383 52.9336 84 35.4727 84H0.960938ZM34.8281 75.2109C44.8281 75.2109 49.8281 70.1328 49.8281 59.9766C49.8281 50.0938 43.1289 45.1523 29.7305 45.1523H25.043V38.0625C41.0586 35.9141 49.0664 30.1328 49.0664 20.7188C49.0664 12.9062 44.6133 9 35.707 9H11.8008V75.2109H34.8281Z" fill="white"/>
<path d="M77.7188 84V22.4766H85.043L86.8594 30.2109C92.7578 25.0547 99.1836 22.4766 106.137 22.4766C115.043 22.4766 121.117 25.2891 124.359 30.9141C131.039 25.2891 137.816 22.4766 144.691 22.4766C158.832 22.4766 165.902 30.2695 165.902 45.8555V84H155.062V45.2695C155.062 36.0898 151.195 31.5 143.461 31.5C137.68 31.5 132.27 34.1562 127.23 39.4688V84H116.391V45.4453C116.391 36.1484 112.562 31.5 104.906 31.5C98.8125 31.5 93.3633 34.1562 88.5586 39.4688V84H77.7188Z" fill="white"/>
<path d="M180.609 65.4258C180.609 52.8086 188.93 46.5 205.57 46.5C210.922 46.5 216.273 46.8906 221.625 47.6719V41.8711C221.625 34.8008 216.098 31.2656 205.043 31.2656C198.715 31.2656 192.23 32.2422 185.59 34.1953V25.4062C192.23 23.4531 198.715 22.4766 205.043 22.4766C223.324 22.4766 232.465 28.8438 232.465 41.5781V84H226.371L222.621 77.9062C216.488 81.9688 209.809 84 202.582 84C187.934 84 180.609 77.8086 180.609 65.4258ZM205.57 55.2891C196.156 55.2891 191.449 58.6094 191.449 65.25C191.449 71.8906 195.16 75.2109 202.582 75.2109C210.082 75.2109 216.43 73.2188 221.625 69.2344V56.4609C216.273 55.6797 210.922 55.2891 205.57 55.2891Z" fill="white"/>
<path d="M250.102 12.5156H256.898L259.242 22.4766H275.883V31.2656H260.941V66.5977C260.941 72.3398 263.422 75.2109 268.383 75.2109H275.883V84H265.57C255.258 84 250.102 78.4727 250.102 67.418V12.5156Z" fill="white"/>
<path d="M336 82.2422C330.922 83.4141 325.453 84 319.594 84C297.719 84 286.781 73.3555 286.781 52.0664C286.781 32.3398 297.719 22.4766 319.594 22.4766C325.453 22.4766 330.922 23.0625 336 24.2344V33.0234C330.922 31.8516 325.258 31.2656 319.008 31.2656C304.75 31.2656 297.621 38.1992 297.621 52.0664C297.621 67.4961 304.75 75.2109 319.008 75.2109C325.258 75.2109 330.922 74.625 336 73.4531V82.2422Z" fill="white"/>
<path d="M349.828 84V0.210938H360.668V29.1562C365.902 24.7031 372.289 22.4766 379.828 22.4766C395.18 22.4766 402.855 30.1133 402.855 45.3867V84H392.016V45.2109C392.016 36.0703 387.465 31.5 378.363 31.5C372.152 31.5 366.254 34.0977 360.668 39.293V84H349.828Z" fill="white"/>
</svg>
